<svg width="46" height="46" viewBox="0 0 46 46" fill="none" xmlns="http://www.w3.org/2000/svg">
<path d="M30.7212 1.7694C26.5926 0.232539 22.1061 -0.0702164 17.8084 0.898032C13.5107 1.86628 9.58748 4.06372 6.51677 7.22256C3.44607 10.3814 1.36051 14.3652 0.514233 18.6886C-0.332039 23.0119 0.0975257 27.4881 1.75058 31.5716C3.40363 35.6551 6.20879 39.1696 9.82421 41.6868C13.4396 44.204 17.7092 45.6152 22.1126 45.7484C26.5159 45.8816 30.863 44.7311 34.624 42.4371C38.385 40.1431 41.3975 36.8047 43.2944 32.8286L33.059 27.9455C32.1094 29.9359 30.6014 31.6071 28.7187 32.7554C26.8359 33.9038 24.6598 34.4797 22.4555 34.413C20.2512 34.3463 18.1139 33.6399 16.3041 32.3798C14.4942 31.1197 13.09 29.3604 12.2625 27.3162C11.435 25.2721 11.2199 23.0313 11.6436 20.8671C12.0672 18.7029 13.1112 16.7086 14.6484 15.1273C16.1856 13.546 18.1495 12.446 20.3009 11.9613C22.4523 11.4766 24.6982 11.6281 26.765 12.3975L30.7212 1.7694Z" fill="#3B76F2"/>
<path d="M44.4247 16.1228C43.9018 14.4907 43.1959 12.9231 42.3204 11.4498L32.5714 17.2434C33.0097 17.9809 33.3631 18.7657 33.6248 19.5827L44.4247 16.1228Z" fill="#9CCC3A"/>
<path d="M45.5073 23.0508C45.5073 21.337 45.3133 19.6287 44.929 17.9586L33.8773 20.5017C34.0696 21.3377 34.1668 22.1929 34.1668 23.0508H45.5073Z" fill="#EF1923"/>
<path d="M44.3616 30.1726C44.8991 28.5453 45.2506 26.8624 45.4095 25.156L34.1178 24.1046C34.0383 24.9588 33.8623 25.8013 33.5932 26.6159L44.3616 30.1726Z" fill="#FECC00"/>
<path d="M41.5577 10.2533C40.5919 8.83757 39.4689 7.53576 38.2102 6.37269L30.5139 14.7019C31.144 15.2841 31.7061 15.9358 32.1896 16.6444L41.5577 10.2533Z" fill="#00A3D4"/>
<path d="M36.9514 5.29208C35.6112 4.22401 34.1543 3.3111 32.6087 2.57078L27.7098 12.7987C28.4835 13.1692 29.2128 13.6262 29.8837 14.1609L36.9514 5.29208Z" fill="#F56421"/>
</svg>
