<svg width="230" height="47" viewBox="0 0 230 47" fill="none" xmlns="http://www.w3.org/2000/svg">
<circle cx="134.727" cy="5.06875" r="5.06875" fill="black"/>
<path d="M165.748 0.405273C169.031 0.405273 172.055 0.987889 174.82 2.15312C177.642 3.26009 180.062 4.83315 182.078 6.8723C184.151 8.85319 185.735 11.2419 186.829 14.0385C187.981 16.835 188.557 19.8937 188.557 23.2147C188.557 26.5356 187.981 29.5943 186.829 32.3908C185.735 35.1874 184.151 37.6052 182.078 39.6444C180.062 41.6253 177.642 43.1984 174.82 44.3636C172.055 45.4706 169.031 46.024 165.748 46.024C162.465 46.024 159.412 45.4706 156.59 44.3636C153.825 43.1984 151.406 41.6253 149.332 39.6444C147.316 37.6052 145.732 35.1874 144.58 32.3908C143.486 29.5943 142.939 26.5356 142.939 23.2147C142.939 19.8937 143.486 16.835 144.58 14.0385C145.732 11.2419 147.316 8.85319 149.332 6.8723C151.406 4.83315 153.825 3.26009 156.59 2.15312C159.412 0.987889 162.465 0.405273 165.748 0.405273ZM165.748 33.7891C167.073 33.7891 168.311 33.5561 169.463 33.09C170.673 32.5656 171.738 31.8665 172.66 30.9926C173.582 30.0604 174.302 28.9534 174.82 27.6717C175.338 26.3316 175.598 24.846 175.598 23.2147C175.598 21.5833 175.338 20.1268 174.82 18.845C174.302 17.5633 173.582 16.4563 172.66 15.5241C171.738 14.592 170.673 13.8928 169.463 13.4267C168.311 12.9024 167.073 12.6402 165.748 12.6402C164.423 12.6402 163.156 12.9024 161.947 13.4267C160.795 13.8928 159.758 14.592 158.836 15.5241C157.915 16.4563 157.195 17.5633 156.676 18.845C156.158 20.1268 155.899 21.5833 155.899 23.2147C155.899 24.846 156.158 26.3316 156.676 27.6717C157.195 28.9534 157.915 30.0604 158.836 30.9926C159.758 31.8665 160.795 32.5656 161.947 33.09C163.156 33.5561 164.423 33.7891 165.748 33.7891Z" fill="black"/>
<path d="M91.0349 0.5C91.0349 0.223858 91.2588 0 91.5349 0H108.173C110.627 0 112.827 0.380581 114.774 1.14174C116.72 1.86062 118.349 2.8755 119.661 4.18639C121.015 5.49728 122.031 7.06189 122.708 8.88022C123.427 10.6563 123.787 12.6015 123.787 14.7158C123.787 16.1958 123.533 17.5702 123.025 18.8388C122.56 20.1074 121.904 21.2914 121.058 22.3909C120.254 23.448 119.301 24.3995 118.201 25.2452C117.188 25.985 116.103 26.6172 114.947 27.1419C114.765 27.2243 114.647 27.404 114.647 27.6033V27.6928C114.647 27.7925 114.677 27.89 114.732 27.9727L125.989 44.6361C126.214 44.9682 125.976 45.416 125.575 45.416H115.478C115.315 45.416 115.162 45.3366 115.069 45.2033L103.879 29.2637C103.785 29.1304 103.632 29.051 103.47 29.051H101.437C101.161 29.051 100.937 29.2749 100.937 29.551V44.916C100.937 45.1922 100.713 45.416 100.437 45.416H91.5349C91.2588 45.416 91.0349 45.1922 91.0349 44.916V0.5ZM108.173 19.9171C109.95 19.9171 111.346 19.4096 112.362 18.3948C113.377 17.3376 113.885 16.0478 113.885 14.5255C113.885 13.0032 113.398 11.7346 112.425 10.7197C111.494 9.66253 110.077 9.13394 108.173 9.13394H101.437C101.161 9.13394 100.937 9.3578 100.937 9.63394V19.4171C100.937 19.6932 101.161 19.9171 101.437 19.9171H108.173Z" fill="black"/>
<path d="M59.8881 0H50.4849V45.416H59.8881C60.1643 45.416 60.3881 45.1922 60.3881 44.916V31.9688L64.7049 26.9578L77.6553 45.416H88.7647C89.1677 45.416 89.4051 44.9638 89.1763 44.6321L71.561 19.0925L87.1029 0.82399C87.3791 0.499289 87.1483 0 86.722 0H76.0048L61.0229 17.5067H60.3881V0.5C60.3881 0.223858 60.1643 0 59.8881 0Z" fill="black"/>
<path d="M30.6299 1.78112C26.5013 0.244257 22.0148 -0.0584977 17.7171 0.909751C13.4194 1.878 9.49617 4.07544 6.42547 7.23428C3.35476 10.3931 1.2692 14.377 0.422924 18.7003C-0.423348 23.0237 0.0062171 27.4998 1.65927 31.5833C3.31233 35.6668 6.11748 39.1813 9.7329 41.6985C13.3483 44.2157 17.6179 45.6269 22.0212 45.7601C26.4246 45.8933 30.7717 44.7429 34.5327 42.4488C38.2937 40.1548 41.3062 36.8164 43.2031 32.8403L32.9677 27.9572C32.0181 29.9476 30.5101 31.6188 28.6273 32.7672C26.7446 33.9155 24.5685 34.4914 22.3642 34.4247C20.1599 34.3581 18.0226 33.6516 16.2128 32.3915C14.4029 31.1314 12.9987 29.3721 12.1712 27.3279C11.3437 25.2838 11.1286 23.0431 11.5523 20.8788C11.9759 18.7146 13.0199 16.7203 14.5571 15.139C16.0943 13.5577 18.0582 12.4577 20.2096 11.973C22.361 11.4883 24.6069 11.6399 26.6736 12.4092L30.6299 1.78112Z" fill="#3B76F2"/>
<path d="M44.3334 16.1345C43.8105 14.5024 43.1046 12.9348 42.2291 11.4615L32.4801 17.2551C32.9184 17.9927 33.2718 18.7774 33.5335 19.5944L44.3334 16.1345Z" fill="#9CCC3A"/>
<path d="M45.416 23.0625C45.416 21.3487 45.222 19.6404 44.8377 17.9703L33.786 20.5134C33.9783 21.3494 34.0755 22.2046 34.0755 23.0625H45.416Z" fill="#EF1923"/>
<path d="M44.2703 30.1843C44.8078 28.557 45.1593 26.8741 45.3182 25.1677L34.0265 24.1163C33.947 24.9705 33.771 25.813 33.5019 26.6276L44.2703 30.1843Z" fill="#FECC00"/>
<path d="M41.4664 10.265C40.5006 8.84929 39.3776 7.54747 38.1189 6.38441L30.4226 14.7136C31.0527 15.2958 31.6148 15.9475 32.0983 16.6562L41.4664 10.265Z" fill="#00A3D4"/>
<path d="M36.8601 5.30379C35.5198 4.23573 34.063 3.32282 32.5174 2.5825L27.6185 12.8104C28.3922 13.181 29.1215 13.638 29.7924 14.1726L36.8601 5.30379Z" fill="#F56421"/>
<path d="M192.41 0H203.784L220.086 27.911H220.718L220.086 19.1967V0H229.317C229.593 0 229.817 0.223858 229.817 0.5V44.7133C229.817 44.9894 229.593 45.2133 229.317 45.2133H219.454L202.141 15.6605H201.509L202.141 24.3747V45.2133H192.41V0Z" fill="black"/>
<path d="M139.796 45.4209H129.659V8.9209C131.576 13.1345 137.5 13.3008 139.65 9.20117L139.796 8.9209V45.4209Z" fill="black"/>
</svg>
